<?xml version="1.0" encoding="UTF-8" standalone="no"?>
<!-- Created with Inkscape (http://www.inkscape.org/) -->

<svg
   width="240"
   height="240"
   viewBox="0 0 63.5 63.5"
   version="1.1"
   id="svg5"
   inkscape:version="1.4.2 (ebf0e940d0, 2025-05-08)"
   sodipodi:docname="edit-control-node.svg"
   inkscape:export-filename="/home/lino/prj/Project-Heartbeat/graphics/icons/flip-angles.png"
   inkscape:export-xdpi="204.8"
   inkscape:export-ydpi="204.8"
   xmlns:inkscape="http://www.inkscape.org/namespaces/inkscape"
   xmlns:sodipodi="http://sodipodi.sourceforge.net/DTD/sodipodi-0.dtd"
   xmlns="http://www.w3.org/2000/svg"
   xmlns:svg="http://www.w3.org/2000/svg">
  <sodipodi:namedview
     id="namedview7"
     pagecolor="#505050"
     bordercolor="#eeeeee"
     borderopacity="1"
     inkscape:pageshadow="0"
     inkscape:pageopacity="0"
     inkscape:pagecheckerboard="true"
     inkscape:document-units="mm"
     showgrid="false"
     units="px"
     width="240px"
     inkscape:zoom="2.1374999"
     inkscape:cx="176.14036"
     inkscape:cy="157.66082"
     inkscape:window-width="1900"
     inkscape:window-height="1040"
     inkscape:window-x="10"
     inkscape:window-y="10"
     inkscape:window-maximized="1"
     inkscape:current-layer="layer1"
     inkscape:showpageshadow="0"
     inkscape:deskcolor="#505050" />
  <defs
     id="defs2">
    <marker
       style="overflow:visible"
       id="Arrow2Send"
       refX="0"
       refY="0"
       orient="auto"
       inkscape:stockid="Arrow2Send"
       inkscape:isstock="true">
      <path
         transform="matrix(-0.3,0,0,-0.3,0.69,0)"
         d="M 8.7185878,4.0337352 -2.2072895,0.01601326 8.7185884,-4.0017078 c -1.7454984,2.3720609 -1.7354408,5.6174519 -6e-7,8.035443 z"
         style="fill:context-stroke;fill-rule:evenodd;stroke:context-stroke;stroke-width:0.625;stroke-linejoin:round"
         id="path2822" />
    </marker>
    <marker
       style="overflow:visible"
       id="Arrow1Lend"
       refX="0"
       refY="0"
       orient="auto"
       inkscape:stockid="Arrow1Lend"
       inkscape:isstock="true">
      <path
         transform="matrix(-0.8,0,0,-0.8,-10,0)"
         style="fill:context-stroke;fill-rule:evenodd;stroke:context-stroke;stroke-width:1pt"
         d="M 0,0 5,-5 -12.5,0 5,5 Z"
         id="path2792" />
    </marker>
    <marker
       style="overflow:visible"
       id="Arrow2Mend"
       refX="0"
       refY="0"
       orient="auto"
       inkscape:stockid="Arrow2Mend"
       inkscape:isstock="true">
      <path
         transform="scale(-0.6)"
         d="M 8.7185878,4.0337352 -2.2072895,0.01601326 8.7185884,-4.0017078 c -1.7454984,2.3720609 -1.7354408,5.6174519 -6e-7,8.035443 z"
         style="fill:context-stroke;fill-rule:evenodd;stroke:context-stroke;stroke-width:0.625;stroke-linejoin:round"
         id="path1036" />
    </marker>
    <marker
       style="overflow:visible"
       id="Arrow1Send"
       refX="0"
       refY="0"
       orient="auto"
       inkscape:stockid="Arrow1Send"
       inkscape:isstock="true">
      <path
         transform="matrix(-0.2,0,0,-0.2,-1.2,0)"
         style="fill:context-stroke;fill-rule:evenodd;stroke:context-stroke;stroke-width:1pt"
         d="M 0,0 5,-5 -12.5,0 5,5 Z"
         id="path1024" />
    </marker>
    <marker
       id="ExperimentalArrow"
       refX="5"
       refY="3"
       orient="auto-start-reverse"
       inkscape:stockid="ExperimentalArrow"
       inkscape:isstock="true">
      <path
         style="fill:context-stroke"
         d="M 10,3 0,6 V 0 Z"
         id="path1262" />
    </marker>
    <marker
       style="overflow:visible"
       id="TriangleOutL"
       refX="0"
       refY="0"
       orient="auto"
       inkscape:stockid="TriangleOutL"
       inkscape:isstock="true">
      <path
         transform="scale(0.8)"
         style="fill:context-stroke;fill-rule:evenodd;stroke:context-stroke;stroke-width:1pt"
         d="M 5.77,0 -2.88,5 V -5 Z"
         id="path1887" />
    </marker>
    <marker
       style="overflow:visible"
       id="Arrow2Lend"
       refX="0"
       refY="0"
       orient="auto"
       inkscape:stockid="Arrow2Lend"
       inkscape:isstock="true">
      <path
         transform="matrix(-1.1,0,0,-1.1,-1.1,0)"
         d="M 8.7185878,4.0337352 -2.2072895,0.01601326 8.7185884,-4.0017078 c -1.7454984,2.3720609 -1.7354408,5.6174519 -6e-7,8.035443 z"
         style="fill:context-stroke;fill-rule:evenodd;stroke:context-stroke;stroke-width:0.625;stroke-linejoin:round"
         id="path1766" />
    </marker>
    <marker
       style="overflow:visible"
       id="Arrow2Mend-3"
       refX="0"
       refY="0"
       orient="auto"
       inkscape:stockid="Arrow2Mend"
       inkscape:isstock="true">
      <path
         transform="scale(-0.6)"
         d="M 8.7185878,4.0337352 -2.2072895,0.01601326 8.7185884,-4.0017078 c -1.7454984,2.3720609 -1.7354408,5.6174519 -6e-7,8.035443 z"
         style="fill:context-stroke;fill-rule:evenodd;stroke:context-stroke;stroke-width:0.625;stroke-linejoin:round"
         id="path1036-6" />
    </marker>
    <marker
       style="overflow:visible"
       id="Arrow2Mend-3-5"
       refX="0"
       refY="0"
       orient="auto"
       inkscape:stockid="Arrow2Mend"
       inkscape:isstock="true">
      <path
         transform="scale(-0.6)"
         d="M 8.7185878,4.0337352 -2.2072895,0.01601326 8.7185884,-4.0017078 c -1.7454984,2.3720609 -1.7354408,5.6174519 -6e-7,8.035443 z"
         style="fill:context-stroke;fill-rule:evenodd;stroke:context-stroke;stroke-width:0.625;stroke-linejoin:round"
         id="path1036-6-3" />
    </marker>
    <marker
       style="overflow:visible"
       id="Arrow2Mend-36"
       refX="0"
       refY="0"
       orient="auto"
       inkscape:stockid="Arrow2Mend"
       inkscape:isstock="true">
      <path
         transform="scale(-0.6)"
         d="M 8.7185878,4.0337352 -2.2072895,0.01601326 8.7185884,-4.0017078 c -1.7454984,2.3720609 -1.7354408,5.6174519 -6e-7,8.035443 z"
         style="fill:context-stroke;fill-rule:evenodd;stroke:context-stroke;stroke-width:0.625;stroke-linejoin:round"
         id="path1036-7" />
    </marker>
    <marker
       style="overflow:visible"
       id="Arrow2Mend-36-2"
       refX="0"
       refY="0"
       orient="auto"
       inkscape:stockid="Arrow2Mend"
       inkscape:isstock="true">
      <path
         transform="scale(-0.6)"
         d="M 8.7185878,4.0337352 -2.2072895,0.01601326 8.7185884,-4.0017078 c -1.7454984,2.3720609 -1.7354408,5.6174519 -6e-7,8.035443 z"
         style="fill:context-stroke;fill-rule:evenodd;stroke:context-stroke;stroke-width:0.625;stroke-linejoin:round"
         id="path1036-7-7" />
    </marker>
  </defs>
  <g
     inkscape:label="Layer 1"
     inkscape:groupmode="layer"
     id="layer1">
    <g
       id="g2623" />
    <path
       d="m 31.75,11.741402 c -9.257893,0 -17.093919,6.362594 -19.353341,14.933456 h 7.002674 c 1.983556,-4.864098 6.74501,-8.263062 12.350667,-8.263062 5.605657,0 10.368602,3.398964 12.352734,8.263062 h 7.000607 C 48.84392,18.103996 41.007894,11.741402 31.75,11.741402 Z m 0.0021,13.238985 a 6.7719381,6.7719381 0 0 0 -4.480863,1.694471 h 8.96121 A 6.7719381,6.7719381 0 0 0 31.752067,24.980387 Z M 12.396659,36.825142 c 2.259422,8.570862 10.095448,14.933456 19.353341,14.933456 9.257894,0 17.09392,-6.362594 19.353341,-14.933456 h -7.000607 c -1.984057,4.864837 -6.746959,8.265129 -12.352734,8.265129 -5.605775,0 -10.367186,-3.400292 -12.350667,-8.265129 z m 14.869894,0 a 6.7719381,6.7719381 0 0 0 4.485514,1.698605 6.7719381,6.7719381 0 0 0 4.484998,-1.698605 z"
       style="fill:#ffffff;stroke-width:2.91534"
       id="path9" />
    <path
       d="m 4.7950562,26.674858 c -1.662,0 -3.0003337,1.338333 -3.0003337,3.000333 v 4.149618 c 0,1.662 1.3383337,3.000333 3.0003337,3.000333 H 58.704944 c 1.662,0 3.000334,-1.338333 3.000334,-3.000333 v -4.149618 c 0,-1.662 -1.338334,-3.000333 -3.000334,-3.000333 z"
       style="fill:#ffffff;stroke-width:0.787135"
       id="path8" />
    <path
       d="m 48.489755,14.605289 v 1.801553 h 1.801551 L 55.604682,11.08866 53.803131,9.2871093 48.489755,14.605289 m 9.420915,0.533261 -2.04176,2.041758 -2.49815,-2.498151 0.850331,-0.850332 0.480414,0.480413 1.186622,-1.191426 0.682189,0.682188 -0.701406,0.682188 0.509239,0.480413 0.682189,-0.67258 0.850332,0.845529 m -7.686622,-3.617517 -2.507759,-2.4933463 2.041758,-2.0417594 0.845529,0.8503315 -1.186622,1.1914279 0.514042,0.5092376 1.181818,-1.1914256 0.682187,0.682188 -0.682187,0.6773813 0.480412,0.480416 -1.369178,1.335549 m 6.773835,-1.839986 c 0.187361,-0.1873596 0.187361,-0.4804116 0,-0.6773821 L 55.873716,7.898713 c -0.177762,-0.1873605 -0.490023,-0.1873605 -0.677385,0 l -0.883962,0.8791581 1.801552,1.8015509 z"
       id="path2"
       style="fill:#ffffff;fill-opacity:1;stroke-width:0.480414" />
  </g>
</svg>
