<?xml version="1.0" encoding="UTF-8" standalone="no"?>
<!-- Created with Inkscape (http://www.inkscape.org/) -->

<svg
   width="240"
   height="240"
   viewBox="0 0 63.5 63.5"
   version="1.1"
   id="svg5"
   inkscape:version="1.4.2 (ebf0e940d0, 2025-05-08)"
   sodipodi:docname="straight-spline.svg"
   inkscape:export-filename="/home/lino/prj/Project-Heartbeat/graphics/icons/flip-angles.png"
   inkscape:export-xdpi="204.8"
   inkscape:export-ydpi="204.8"
   xmlns:inkscape="http://www.inkscape.org/namespaces/inkscape"
   xmlns:sodipodi="http://sodipodi.sourceforge.net/DTD/sodipodi-0.dtd"
   xmlns="http://www.w3.org/2000/svg"
   xmlns:svg="http://www.w3.org/2000/svg">
  <sodipodi:namedview
     id="namedview7"
     pagecolor="#505050"
     bordercolor="#eeeeee"
     borderopacity="1"
     inkscape:pageshadow="0"
     inkscape:pageopacity="0"
     inkscape:pagecheckerboard="true"
     inkscape:document-units="mm"
     showgrid="false"
     units="px"
     width="240px"
     inkscape:zoom="2.4446229"
     inkscape:cx="66.881481"
     inkscape:cy="87.539064"
     inkscape:window-width="1900"
     inkscape:window-height="1040"
     inkscape:window-x="10"
     inkscape:window-y="10"
     inkscape:window-maximized="1"
     inkscape:current-layer="layer1"
     inkscape:showpageshadow="0"
     inkscape:deskcolor="#505050" />
  <defs
     id="defs2">
    <inkscape:path-effect
       effect="fillet_chamfer"
       id="path-effect1"
       is_visible="true"
       lpeversion="1"
       nodesatellites_param="F,0,0,1,0,0,0,1 @ F,0,0,1,0,1.3839801,0,1 @ F,0,0,1,0,0,0,1"
       radius="0"
       unit="px"
       method="auto"
       mode="F"
       chamfer_steps="1"
       flexible="false"
       use_knot_distance="true"
       apply_no_radius="true"
       apply_with_radius="true"
       only_selected="false"
       hide_knots="false" />
    <marker
       style="overflow:visible"
       id="Arrow2Send"
       refX="0"
       refY="0"
       orient="auto"
       inkscape:stockid="Arrow2Send"
       inkscape:isstock="true">
      <path
         transform="matrix(-0.3,0,0,-0.3,0.69,0)"
         d="M 8.7185878,4.0337352 -2.2072895,0.01601326 8.7185884,-4.0017078 c -1.7454984,2.3720609 -1.7354408,5.6174519 -6e-7,8.035443 z"
         style="fill:context-stroke;fill-rule:evenodd;stroke:context-stroke;stroke-width:0.625;stroke-linejoin:round"
         id="path2822" />
    </marker>
    <marker
       style="overflow:visible"
       id="Arrow1Lend"
       refX="0"
       refY="0"
       orient="auto"
       inkscape:stockid="Arrow1Lend"
       inkscape:isstock="true">
      <path
         transform="matrix(-0.8,0,0,-0.8,-10,0)"
         style="fill:context-stroke;fill-rule:evenodd;stroke:context-stroke;stroke-width:1pt"
         d="M 0,0 5,-5 -12.5,0 5,5 Z"
         id="path2792" />
    </marker>
    <marker
       style="overflow:visible"
       id="Arrow2Mend"
       refX="0"
       refY="0"
       orient="auto"
       inkscape:stockid="Arrow2Mend"
       inkscape:isstock="true">
      <path
         transform="scale(-0.6)"
         d="M 8.7185878,4.0337352 -2.2072895,0.01601326 8.7185884,-4.0017078 c -1.7454984,2.3720609 -1.7354408,5.6174519 -6e-7,8.035443 z"
         style="fill:context-stroke;fill-rule:evenodd;stroke:context-stroke;stroke-width:0.625;stroke-linejoin:round"
         id="path1036" />
    </marker>
    <marker
       style="overflow:visible"
       id="Arrow1Send"
       refX="0"
       refY="0"
       orient="auto"
       inkscape:stockid="Arrow1Send"
       inkscape:isstock="true">
      <path
         transform="matrix(-0.2,0,0,-0.2,-1.2,0)"
         style="fill:context-stroke;fill-rule:evenodd;stroke:context-stroke;stroke-width:1pt"
         d="M 0,0 5,-5 -12.5,0 5,5 Z"
         id="path1024" />
    </marker>
    <marker
       id="ExperimentalArrow"
       refX="5"
       refY="3"
       orient="auto-start-reverse"
       inkscape:stockid="ExperimentalArrow"
       inkscape:isstock="true">
      <path
         style="fill:context-stroke"
         d="M 10,3 0,6 V 0 Z"
         id="path1262" />
    </marker>
    <marker
       style="overflow:visible"
       id="TriangleOutL"
       refX="0"
       refY="0"
       orient="auto"
       inkscape:stockid="TriangleOutL"
       inkscape:isstock="true">
      <path
         transform="scale(0.8)"
         style="fill:context-stroke;fill-rule:evenodd;stroke:context-stroke;stroke-width:1pt"
         d="M 5.77,0 -2.88,5 V -5 Z"
         id="path1887" />
    </marker>
    <marker
       style="overflow:visible"
       id="Arrow2Lend"
       refX="0"
       refY="0"
       orient="auto"
       inkscape:stockid="Arrow2Lend"
       inkscape:isstock="true">
      <path
         transform="matrix(-1.1,0,0,-1.1,-1.1,0)"
         d="M 8.7185878,4.0337352 -2.2072895,0.01601326 8.7185884,-4.0017078 c -1.7454984,2.3720609 -1.7354408,5.6174519 -6e-7,8.035443 z"
         style="fill:context-stroke;fill-rule:evenodd;stroke:context-stroke;stroke-width:0.625;stroke-linejoin:round"
         id="path1766" />
    </marker>
    <marker
       style="overflow:visible"
       id="Arrow2Mend-3"
       refX="0"
       refY="0"
       orient="auto"
       inkscape:stockid="Arrow2Mend"
       inkscape:isstock="true">
      <path
         transform="scale(-0.6)"
         d="M 8.7185878,4.0337352 -2.2072895,0.01601326 8.7185884,-4.0017078 c -1.7454984,2.3720609 -1.7354408,5.6174519 -6e-7,8.035443 z"
         style="fill:context-stroke;fill-rule:evenodd;stroke:context-stroke;stroke-width:0.625;stroke-linejoin:round"
         id="path1036-6" />
    </marker>
    <marker
       style="overflow:visible"
       id="Arrow2Mend-3-5"
       refX="0"
       refY="0"
       orient="auto"
       inkscape:stockid="Arrow2Mend"
       inkscape:isstock="true">
      <path
         transform="scale(-0.6)"
         d="M 8.7185878,4.0337352 -2.2072895,0.01601326 8.7185884,-4.0017078 c -1.7454984,2.3720609 -1.7354408,5.6174519 -6e-7,8.035443 z"
         style="fill:context-stroke;fill-rule:evenodd;stroke:context-stroke;stroke-width:0.625;stroke-linejoin:round"
         id="path1036-6-3" />
    </marker>
    <marker
       style="overflow:visible"
       id="Arrow2Mend-36"
       refX="0"
       refY="0"
       orient="auto"
       inkscape:stockid="Arrow2Mend"
       inkscape:isstock="true">
      <path
         transform="scale(-0.6)"
         d="M 8.7185878,4.0337352 -2.2072895,0.01601326 8.7185884,-4.0017078 c -1.7454984,2.3720609 -1.7354408,5.6174519 -6e-7,8.035443 z"
         style="fill:context-stroke;fill-rule:evenodd;stroke:context-stroke;stroke-width:0.625;stroke-linejoin:round"
         id="path1036-7" />
    </marker>
    <marker
       style="overflow:visible"
       id="Arrow2Mend-36-2"
       refX="0"
       refY="0"
       orient="auto"
       inkscape:stockid="Arrow2Mend"
       inkscape:isstock="true">
      <path
         transform="scale(-0.6)"
         d="M 8.7185878,4.0337352 -2.2072895,0.01601326 8.7185884,-4.0017078 c -1.7454984,2.3720609 -1.7354408,5.6174519 -6e-7,8.035443 z"
         style="fill:context-stroke;fill-rule:evenodd;stroke:context-stroke;stroke-width:0.625;stroke-linejoin:round"
         id="path1036-7-7" />
    </marker>
  </defs>
  <g
     inkscape:label="Layer 1"
     inkscape:groupmode="layer"
     id="layer1">
    <g
       id="g1"
       transform="translate(0,-0.52572001)">
      <path
         d=""
         style="fill:#ffffff;stroke-width:3.25437"
         id="path18" />
      <path
         d=""
         style="baseline-shift:baseline;display:inline;overflow:visible;vector-effect:none;enable-background:accumulate;stop-color:#000000;stop-opacity:1"
         id="path13" />
      <path
         id="path3"
         style="baseline-shift:baseline;display:inline;overflow:visible;opacity:1;vector-effect:none;fill:#ffffff;enable-background:accumulate;stop-color:#000000;stop-opacity:1"
         d="m 31.747933,12.086084 c -0.822193,0.0023 -1.644062,0.38347 -2.109432,1.140499 L 11.084078,43.41027 13.857552,45.115076 31.759819,15.992306 49.640381,44.713033 52.402486,42.994275 33.863049,13.214697 c -0.469667,-0.75437 -1.292923,-1.130951 -2.115116,-1.128613 z M 10.445357,41.337528 c -2.3189449,-0.04194 -4.5967143,1.14232 -5.8332354,3.284038 -1.521872,2.63596 -0.9987072,5.913157 1.0702189,7.965405 L 4.4328044,54.75118 c -0.27321,0.473213 -0.1119952,1.073995 0.3612182,1.347205 l 1.1813233,0.682129 c 0.4732134,0.27321 1.074511,0.112512 1.3477213,-0.360702 l 1.2495362,-2.164726 c 2.8117636,0.765616 5.9112656,-0.419151 7.4331376,-3.05511 1.509969,-2.615342 1.006559,-5.861735 -1.022159,-7.91683 l -1.12603,1.83193 -2.773474,-1.704806 1.088306,-1.770951 -0.127124,-0.07338 c -0.527206,-0.143553 -1.064762,-0.218732 -1.599903,-0.22841 z m 42.609286,0 c -0.518181,0.0094 -1.038657,0.08017 -1.549776,0.214974 l 0.897619,1.441773 -2.762105,1.718758 -0.961699,-1.544609 -0.114204,0.06615 c -2.068925,2.05225 -2.592091,5.329446 -1.070219,7.965406 1.521872,2.63596 4.621376,3.820728 7.433138,3.05511 l 1.249536,2.164726 c 0.273209,0.473214 0.874507,0.633912 1.347721,0.360702 l 1.181323,-0.682129 c 0.473213,-0.273211 0.63443,-0.873991 0.361219,-1.347205 L 57.81766,52.586971 c 2.068924,-2.05225 2.59209,-5.329446 1.070218,-7.965405 -1.236521,-2.141719 -3.514291,-3.325975 -5.833235,-3.284038 z m -42.802039,2.181779 c 0.213429,-0.0025 0.427934,0.01046 0.641821,0.03979 L 9.6009644,45.800305 H 9.6004476 C 9.0864148,45.973134 8.6531138,46.3275 8.3819173,46.797144 8.1106515,47.266996 8.0201658,47.819791 8.1276693,48.351571 L 6.8336914,50.592778 C 5.7748282,49.228416 5.5897368,47.314215 6.5112305,45.71814 7.3175383,44.321575 8.7586012,43.536551 10.252604,43.519307 Z m 42.994792,0 c 1.494207,0.01711 2.935566,0.801721 3.74189,2.198316 0.921514,1.596107 0.73611,3.510694 -0.322977,4.875155 l -1.292945,-2.239657 c 0.108132,-0.53237 0.01788,-1.08603 -0.253731,-1.556494 -0.271631,-0.470386 -0.706059,-0.825349 -1.221114,-0.997872 l -1.292944,-2.239657 c 0.213912,-0.02935 0.428363,-0.04223 0.641821,-0.03979 z M 13.784688,45.22773 c 1.058992,1.364626 1.243975,3.279564 0.322461,4.875672 -0.92142,1.595948 -2.672156,2.392743 -4.3831947,2.158008 l 1.2929447,-2.240174 h 5.16e-4 c 0.51491,-0.172597 0.949053,-0.527554 1.220598,-0.997872 0.271551,-0.470433 0.361849,-1.023665 0.253731,-1.555977 z m 35.930624,0 1.293978,2.241207 c -0.107334,0.531572 -0.01739,1.084234 0.253731,1.55391 0.271271,0.46985 0.704761,0.824567 1.219047,0.997356 l 1.293978,2.241207 C 52.065205,52.496 50.31477,51.699315 49.393368,50.103402 48.471875,48.507326 48.656542,46.592256 49.715312,45.22773 Z" />
      <path
         id="path2"
         style="baseline-shift:baseline;display:inline;overflow:visible;vector-effect:none;fill:#ff3c95;enable-background:accumulate;stop-color:#000000;stop-opacity:1"
         d="m 31.743546,11.87014 c -1.144687,0 -2.214852,0.867851 -2.214852,2.079976 0,1.212124 1.070165,2.082044 2.214852,2.082044 1.144687,0 2.214852,-0.869919 2.214852,-2.082044 0,-1.212125 -1.070165,-2.079976 -2.214852,-2.079976 z m 0,-4.2323006 c -3.549255,0 -6.449219,2.9012226 -6.449219,6.4507696 0,3.549549 2.899964,6.449219 6.449219,6.449219 3.549255,0 6.449219,-2.89967 6.449219,-6.449219 0,-3.549547 -2.899964,-6.4507696 -6.449219,-6.4507696 z m 0,2.1171835 c 2.405139,0 4.332035,1.9277881 4.332035,4.3335861 0,2.405798 -1.926896,4.332035 -4.332035,4.332035 -2.405139,0 -4.332035,-1.926237 -4.332035,-4.332035 0,-2.405798 1.926896,-4.3335861 4.332035,-4.3335861 z" />
    </g>
  </g>
</svg>
